<?xml version="1.0" encoding="UTF-8" standalone="no"?>
<svg
   xmlns:osb="http://www.openswatchbook.org/uri/2009/osb"
   xmlns:dc="http://purl.org/dc/elements/1.1/"
   xmlns:cc="http://creativecommons.org/ns#"
   xmlns:rdf="http://www.w3.org/1999/02/22-rdf-syntax-ns#"
   xmlns:svg="http://www.w3.org/2000/svg"
   xmlns="http://www.w3.org/2000/svg"
   xmlns:sodipodi="http://sodipodi.sourceforge.net/DTD/sodipodi-0.dtd"
   xmlns:inkscape="http://www.inkscape.org/namespaces/inkscape"
   x="0px"
   y="0px"
   width="108"
   height="108"
   version="1.1"
   id="svg1119"
   inkscape:version="0.91 r13725"
   sodipodi:docname="logo.svg"
   enable-background="new"
   inkscape:export-filename="/Users/dougtangren/Desktop/lambda-sprocket.png"
   inkscape:export-xdpi="90"
   inkscape:export-ydpi="90">
  <metadata
     id="metadata8">
    <rdf:RDF>
      <cc:Work
         rdf:about="">
        <dc:format>image/svg+xml</dc:format>
        <dc:type
           rdf:resource="http://purl.org/dc/dcmitype/StillImage" />
        <dc:title></dc:title>
      </cc:Work>
    </rdf:RDF>
  </metadata>
  <defs
     id="defs6">
    <linearGradient
       id="linearGradient4737"
       osb:paint="solid">
      <stop
         style="stop-color:#00ff00;stop-opacity:1;"
         offset="0"
         id="stop4739" />
    </linearGradient>
    <linearGradient
       id="linearGradient7132"
       osb:paint="solid">
      <stop
         style="stop-color:#aa0000;stop-opacity:1;"
         offset="0"
         id="stop7134" />
    </linearGradient>
    <filter
       inkscape:collect="always"
       style="color-interpolation-filters:sRGB"
       id="filter7524">
      <feBlend
         inkscape:collect="always"
         mode="lighten"
         in2="BackgroundImage"
         id="feBlend7526" />
    </filter>
  </defs>
  <sodipodi:namedview
     pagecolor="#ffffff"
     bordercolor="#666666"
     borderopacity="1"
     objecttolerance="10"
     gridtolerance="10"
     guidetolerance="10"
     inkscape:pageopacity="0"
     inkscape:pageshadow="2"
     inkscape:window-width="1212"
     inkscape:window-height="724"
     id="namedview4"
     showgrid="false"
     showguides="false"
     inkscape:zoom="1.6376217"
     inkscape:cx="115.3024"
     inkscape:cy="54.724266"
     inkscape:window-x="48"
     inkscape:window-y="0"
     inkscape:window-maximized="0"
     inkscape:current-layer="layer1"
     inkscape:snap-text-baseline="false" />
  <text
     xml:space="preserve"
     style="font-style:normal;font-weight:normal;font-size:40px;line-height:125%;font-family:sans-serif;letter-spacing:0px;word-spacing:0px;fill:#000000;fill-opacity:1;stroke:none;stroke-width:1px;stroke-linecap:butt;stroke-linejoin:miter;stroke-opacity:1"
     x="70.245766"
     y="67.271187"
     id="text4014"
     sodipodi:linespacing="125%"><tspan
       sodipodi:role="line"
       id="tspan4016"
       x="70.245766"
       y="67.271187" /></text>
  <g
     inkscape:groupmode="layer"
     id="layer1"
     inkscape:label="sproket"
     style="display:inline">
    <path
       d="m 53.408877,5.4158112 c -0.48499,0 -0.970134,0.213956 -1.233018,0.640872 L 49.565543,10.272913 48.336274,10.392804 44.955786,6.7668362 C 44.81893,6.6204082 44.64923,6.5246132 44.47045,6.4557592 c -0.0038,-9.48e-4 -0.0057,-0.0047 -0.0095,-0.0047 -0.0028,-9.48e-4 -0.0066,-0.0024 -0.0095,-0.0047 -0.06293,-0.02369 -0.125506,-0.04383 -0.191162,-0.05805 -0.106504,-0.0263 -0.215709,-0.04383 -0.326089,-0.04691 -0.603827,-0.01659 -1.227168,0.31129 -1.446637,0.901338 l -1.731404,4.6322468 -1.167433,0.354153 -3.993244,-2.8745413 c -0.205995,-0.148798 -0.443813,-0.224618 -0.685838,-0.239853 -0.729684,-0.07037 -1.518392,0.4204 -1.641524,1.1768043 l -0.796403,4.885226 -1.083109,0.580903 -4.469207,-2.038787 c -0.12335,-0.05639 -0.251217,-0.08814 -0.380396,-0.103068 -0.842992,-0.128658 -1.752193,0.582443 -1.718355,1.467243 l 0.174268,4.956424 -0.951935,0.7814 -4.827124,-1.13742 c -0.980536,-0.230306 -1.976728,0.76593 -1.746466,1.74645 l 1.139322,4.82713 -0.783277,0.95005 -4.956427,-0.17249 c -1.009318,-0.0384 -1.790034,1.13468 -1.369804,2.05189 l 2.051901,4.50482 -0.586527,1.09622 -4.8833361,0.79453 c -0.992032,0.16301 -1.533532,1.46502 -0.944443,2.28051 l 2.8895301,4.01199 -0.3635381,1.19555 -4.630363,1.73335 c -0.942159,0.35114 -1.218427,1.73221 -0.481585,2.41916 l 3.624087,3.3805 -0.119939,1.22739 -4.216237,2.61031 c -0.853892,0.52769 -0.853892,1.94027 0,2.46604 l 4.216304,2.61035 0.119938,1.22739 -3.622215,3.3805 c -0.736842,0.68504 -0.462445,2.06611 0.479713,2.41917 l 4.632245,1.73148 0.3616561,1.19554 -2.8876581,4.01386 c -0.589089,0.81744 -0.0495,2.11937 0.944441,2.27864 l 4.8833381,0.79453 0.586528,1.09809 -2.051902,4.50293 c -0.372844,0.81208 0.20808,1.82518 1.041881,2.0163 0.119441,0.032 0.244415,0.0483 0.372902,0.0431 l 4.91894,-0.17059 0.773913,0.94254 -1.137441,4.829 c -0.201895,0.85817 0.538441,1.72707 1.384801,1.7727 0.134036,0.0118 0.269821,0.007 0.406634,-0.0244 l 4.825243,-1.13555 0.951935,0.77952 -0.172397,4.9583 c -0.03838,1.00358 1.136607,1.78811 2.051902,1.36982 l 4.502942,-2.05192 1.096224,0.58842 0.7964,4.881462 c 0.16119,0.99395 1.465,1.53157 2.280515,0.94631 l 4.013863,-2.891393 1.195536,0.36353 1.73146,4.630363 c 0.351151,0.94024 1.734158,1.21656 2.419188,0.47968 l 3.380497,-3.62223 1.22925,0.12179 2.608454,4.21623 c 0.525767,0.85007 1.940213,0.85198 2.4679,0 l 2.608446,-4.21623 1.229267,-0.12179 3.378616,3.62225 c 0.685023,0.73683 2.06803,0.46052 2.41918,-0.47975 l 1.731471,-4.630353 1.195543,-0.36349 4.013865,2.891393 c 0.815513,0.58526 2.117458,0.0457 2.278643,-0.94631 l 0.796391,-4.881492 1.098095,-0.58839 4.502943,2.05192 c 0.915304,0.41831 2.088387,-0.3642 2.051911,-1.36984 l -0.174293,-4.95828 0.951935,-0.77952 4.827122,1.13555 c 0.980538,0.2303 1.974849,-0.76216 1.744588,-1.74084 l -1.137442,-4.829 0.781408,-0.95192 4.956424,0.17249 c 0.999725,0.0403 1.790028,-1.1366 1.369807,-2.05192 l -2.051911,-4.50292 0.586526,-1.09809 4.883347,-0.79453 c 0.993977,-0.15922 1.533532,-1.46123 0.944443,-2.27866 l -2.887667,-4.01387 0.361694,-1.19552 4.632252,-1.73145 c 0.94216,-0.35309 1.21654,-1.73416 0.47966,-2.41919 l -3.622207,-3.3805 0.119962,-1.22737 4.216235,-2.61033 c 0.85388,-0.52577 0.85389,-1.93835 -1e-5,-2.46603 l -4.216237,-2.61031 -0.119915,-1.22742 3.624072,-3.38047 c 0.73685,-0.68696 0.46062,-2.06803 -0.48159,-2.41919 l -4.630372,-1.73333 -0.363509,-1.19554 2.889539,-4.01199 c 0.589082,-0.81552 0.04758,-2.11741 -0.944449,-2.28051 l -4.883348,-0.79453 -0.586518,-1.09622 2.051901,-4.50482 c 0.42022,-0.91722 -0.360448,-2.0903 -1.369804,-2.05192 l -4.956465,0.17249 -0.783277,-0.95007 1.139322,-4.82711 c 0.230281,-0.98055 -0.765942,-1.976707 -1.746449,-1.74647 l -4.827113,1.13744 -0.951935,-0.7814 0.174269,-4.956423 C 81.984482,14.08694 80.80949,13.302412 79.894195,13.718808 L 75.391253,15.772593 74.29503,15.18418 73.498626,10.298977 C 73.337437,9.3088327 72.033629,8.7673812 71.218115,9.3545387 L 67.20427,12.244054 66.010606,11.882414 64.279145,7.2501672 c -0.35119,-0.944106 -1.736066,-1.216491 -2.421099,-0.483473 L 58.47943,10.392662 57.252042,10.272771 54.641726,6.0565412 c -0.263853,-0.426964 -0.748028,-0.640872 -1.233017,-0.640872 z m -0.159294,8.8391178 c 1.490951,0 2.981355,0.993414 2.981346,2.98133 9e-6,3.975878 -5.964564,3.975878 -5.964564,0 0,-1.987916 1.492264,-2.98133 2.983218,-2.98133 z m 6.920248,4.911433 c 10.600216,1.985545 19.79057,8.530765 25.132532,17.899345 l -3.517283,7.9434 c -0.607319,1.37486 0.01185,2.98299 1.382929,3.59223 l 6.772212,3.00758 c 0.05267,0.52956 0.09402,1.05983 0.123682,1.59092 0.08904,1.59332 0.07426,3.19197 -0.045,4.78403 0,0 0.01469,0.0462 0.01493,0.0469 -0.518111,6.93325 -3.042933,13.70074 -7.231316,19.25039 -0.436685,0.57489 -0.887281,1.13871 -1.356699,1.68651 -0.04672,0.0545 -0.09162,0.11065 -0.138657,0.16491 -0.552439,0.6371 -1.124566,1.25715 -1.720216,1.85516 l -6.307484,-1.35669 c -1.468895,-0.3147 -2.914013,0.61948 -3.228705,2.09125 l -1.495356,6.98585 c -9.739877,4.4119 -20.920287,4.35892 -30.617391,-0.14619 l -1.495365,-6.98583 c -0.314702,-1.46985 -1.758901,-2.40505 -3.226826,-2.0894 l -6.166945,1.32297 c -0.616195,-0.63461 -1.204343,-1.29451 -1.77265,-1.97133 a 28.154358,31.20724 0 0 1 -0.04308,0.0142 c -0.436827,-0.51432 -0.860156,-1.04009 -1.268624,-1.5778 -4.188383,-5.54967 -6.713195,-12.31714 -7.231316,-19.25042 1.92e-4,-7.3e-4 0.01493,-0.0469 0.01493,-0.0469 -0.119251,-1.59204 -0.134013,-3.19069 -0.045,-4.78403 0.02964,-0.5311 0.07099,-1.06137 0.123682,-1.59091 l 6.772212,-3.00758 c 1.371041,-0.60924 1.990248,-2.21739 1.382938,-3.59225 l -3.517292,-7.94337 c 2.930314,-5.13913 7.025893,-9.41609 11.871044,-12.56626 a 28.154358,31.20724 0 0 1 0.02061,0.0166 c 3.998389,-2.60917 8.488945,-4.4368 13.24086,-5.334941 l 4.591018,4.817751 c 1.038099,1.08705 2.757261,1.12714 3.843324,0.0881 z M 17.945624,41.385007 c 1.490952,0 2.983218,0.99341 2.983218,2.98135 0,3.97588 -5.964566,3.97588 -5.964566,0 0,-1.98794 1.490397,-2.98135 2.981348,-2.98135 z m 70.875883,0.007 c 1.490954,0 2.981358,0.99341 2.981358,2.98133 0,3.97588 -5.964575,3.97588 -5.964575,0 0,-1.98792 1.492266,-2.98133 2.983217,-2.98133 z M 31.1565,83.271427 c 1.490951,0 2.983217,0.99529 2.983217,2.98322 1e-5,3.97586 -5.964563,3.97586 -5.964563,0 0,-1.98793 1.490394,-2.98322 2.981346,-2.98322 z m 44.184292,0.1405 c 1.490951,0 2.981357,0.99342 2.981357,2.98136 -9e-6,3.97588 -5.964575,3.97588 -5.964575,0 0,-1.98794 1.492267,-2.98136 2.983218,-2.98136 z"
       id="path1117"
       inkscape:connector-curvature="0"
       style="opacity:1;fill:#ff7f2a;fill-opacity:1;fill-rule:nonzero;stroke:none;stroke-width:0;stroke-linecap:round;stroke-linejoin:miter;stroke-miterlimit:0;stroke-dasharray:none;stroke-dashoffset:0;stroke-opacity:1"
       inkscape:export-xdpi="90"
       inkscape:export-ydpi="90"
       inkscape:export-filename="/Users/dougtangren/Desktop/lambda-sproket-crowbar-snakes-side.png" />
  </g>
  <g
     inkscape:groupmode="layer"
     id="layer2"
     inkscape:label="lambda"
     style="display:inline">
    <text
       xml:space="preserve"
       style="font-style:normal;font-variant:normal;font-weight:800;font-stretch:normal;font-size:50px;line-height:125%;font-family:'.Helvetica Neue DeskInterface';-inkscape-font-specification:'.Helvetica Neue DeskInterface, Ultra-Bold';text-align:start;letter-spacing:0px;word-spacing:0px;writing-mode:lr-tb;text-anchor:start;opacity:1;fill:#ff6600;fill-opacity:1;stroke:none;stroke-width:1px;stroke-linecap:butt;stroke-linejoin:miter;stroke-opacity:1;"
       x="39.208832"
       y="72.138222"
       id="text4064"
       sodipodi:linespacing="125%"
       inkscape:export-filename="/Users/dougtangren/Desktop/lambda-sproket-crowbar-snakes-side.png"
       inkscape:export-xdpi="90"
       inkscape:export-ydpi="90"><tspan
         sodipodi:role="line"
         id="tspan4066"
         x="39.208832"
         y="72.138222"
         style="fill:#ff6600;fill-opacity:1;">λ</tspan></text>
  </g>
  <g
     inkscape:label="lambda text - heveltica neuve utra bold "
     id="g4072"
     inkscape:groupmode="layer"
     style="display:none"
     sodipodi:insensitive="true">
    <text
       sodipodi:linespacing="125%"
       id="text4074"
       y="71.527649"
       x="41.332035"
       style="font-style:normal;font-variant:normal;font-weight:800;font-stretch:normal;font-size:50px;line-height:125%;font-family:'.Helvetica Neue DeskInterface';-inkscape-font-specification:'.Helvetica Neue DeskInterface, Ultra-Bold';text-align:start;letter-spacing:0px;word-spacing:0px;writing-mode:lr-tb;text-anchor:start;fill:#000000;fill-opacity:1;stroke:none;stroke-width:1px;stroke-linecap:butt;stroke-linejoin:miter;stroke-opacity:1"
       xml:space="preserve"><tspan
         y="71.527649"
         x="41.332035"
         id="tspan4076"
         sodipodi:role="line">λ</tspan></text>
  </g>
  <g
     inkscape:groupmode="layer"
     id="layer4"
     inkscape:label="crowbar"
     style="display:inline;filter:url(#filter7524)">
    <flowRoot
       xml:space="preserve"
       id="flowRoot4723"
       style="font-style:normal;font-weight:normal;font-size:40px;line-height:125%;font-family:sans-serif;letter-spacing:0px;word-spacing:0px;fill:#000000;fill-opacity:1;stroke:none;stroke-width:1px;stroke-linecap:butt;stroke-linejoin:miter;stroke-opacity:1"><flowRegion
         id="flowRegion4725"><rect
           id="rect4727"
           width="543"
           height="235"
           x="-102"
           y="-60" /></flowRegion><flowPara
         id="flowPara4729"></flowPara></flowRoot>  </g>
</svg>
